<svg width="159" height="40" viewBox="0 0 159 40" fill="none" xmlns="http://www.w3.org/2000/svg">
<path fill-rule="evenodd" clip-rule="evenodd" d="M0 11.4131L12.8869 0V28.5869L0 40V11.4131Z" fill="#F7B81D"/>
<path fill-rule="evenodd" clip-rule="evenodd" d="M18.6145 11.4131L31.5014 0V28.5869L18.6145 40V11.4131Z" fill="#F7B81D"/>
<path fill-rule="evenodd" clip-rule="evenodd" d="M57.0581 25.9999H61.2054L56.0043 14.1019H52.061L46.8598 25.9999H50.9392L51.738 23.9262H56.2593L57.0581 25.9999ZM52.8428 21.0367L53.9986 18.0452L55.1545 21.0367H52.8428ZM68.1232 26.2718C70.4517 26.2718 72.2873 25.422 73.4603 23.8922L70.9278 21.6317C70.2309 22.5156 69.3981 23.0255 68.3274 23.0255C66.6616 23.0255 65.5398 21.8697 65.5398 20.0511C65.5398 18.2325 66.6616 17.0767 68.3274 17.0767C69.3981 17.0767 70.2311 17.5866 70.9278 18.4705L73.4603 16.21C72.2875 14.6802 70.4519 13.8304 68.1232 13.8304C64.2989 13.8304 61.4943 16.3968 61.4943 20.0513C61.4943 23.7058 64.2992 26.2718 68.1234 26.2718H68.1232ZM84.7124 14.1019H73.8002V17.2125H77.2844V25.9997H81.2278V17.2125H84.7121V14.1023L84.7124 14.1019ZM94.6388 25.9999H98.7861L93.5849 14.1019H89.6416L84.4405 25.9999H88.5198L89.3186 23.9262H93.8399L94.6388 25.9999ZM90.4235 21.0367L91.5793 18.0452L92.7351 21.0367H90.4235ZM107.608 14.1019V18.3172H103.902V14.1019H99.8909V25.9999H103.902V21.6146H107.608V25.9999H111.619V14.1019H107.608ZM122.922 25.9999H127.069L121.868 14.1019H117.925L112.724 25.9999H116.803L117.602 23.9262H122.123L122.922 25.9999ZM118.707 21.0367L119.863 18.0452L121.018 21.0367H118.707ZM142.469 25.9999H146.615L141.415 14.1019H137.472L132.27 25.9999H136.35L137.149 23.9262H141.67L142.469 25.9999ZM138.253 21.0367L139.409 18.0452L140.565 21.0367H138.253ZM153.534 26.2718C155.861 26.2718 157.697 25.422 158.87 23.8922L156.338 21.6317C155.641 22.5156 154.809 23.0255 153.738 23.0255C152.073 23.0255 150.951 21.8697 150.951 20.0511C150.951 18.2325 152.073 17.0767 153.738 17.0767C154.809 17.0767 155.641 17.5866 156.338 18.4705L158.87 16.21C157.697 14.6802 155.862 13.8304 153.534 13.8304C149.71 13.8304 146.905 16.3968 146.905 20.0513C146.905 23.7058 149.71 26.2718 153.534 26.2718H153.534Z" fill="black"/>
</svg>
