<svg width="159" height="40" fill="none" xmlns="http://www.w3.org/2000/svg"><path fill-rule="evenodd" clip-rule="evenodd" d="M0 11.413L12.887 0v28.587L0 40V11.413zm18.614 0L31.502 0v28.587L18.614 40V11.413z" fill="#F7B81D"/><path fill-rule="evenodd" clip-rule="evenodd" d="M57.058 26h4.147l-5.2-11.898H52.06L46.86 26h4.08l.798-2.074h4.521l.8 2.074zm-4.215-4.963l1.156-2.992 1.155 2.992h-2.311zm15.28 5.235c2.329 0 4.164-.85 5.337-2.38l-2.532-2.26c-.697.884-1.53 1.393-2.6 1.393-1.666 0-2.788-1.155-2.788-2.974 0-1.818 1.122-2.974 2.787-2.974 1.071 0 1.904.51 2.6 1.393l2.533-2.26c-1.172-1.53-3.008-2.38-5.337-2.38-3.824 0-6.629 2.567-6.629 6.221 0 3.655 2.805 6.22 6.63 6.22zm16.59-12.17H73.8v3.11h3.484V26h3.944v-8.788h3.484v-3.11zM94.638 26h4.147l-5.201-11.898h-3.943L84.44 26h4.079l.799-2.074h4.52l.8 2.074zm-4.215-4.963l1.155-2.992 1.156 2.992h-2.311zm17.184-6.935v4.215h-3.706v-4.215H99.89V26h4.011v-4.385h3.706V26h4.011V14.102h-4.011zM122.922 26h4.147l-5.201-11.898h-3.943L112.724 26h4.079l.799-2.074h4.521l.799 2.074zm-4.215-4.963l1.156-2.992 1.155 2.992h-2.311zM142.469 26h4.146l-5.2-11.898h-3.943L132.27 26h4.08l.799-2.074h4.521l.799 2.074zm-4.216-4.963l1.156-2.992 1.156 2.992h-2.312zm15.281 5.235c2.327 0 4.163-.85 5.336-2.38l-2.532-2.26c-.697.884-1.529 1.393-2.6 1.393-1.665 0-2.787-1.155-2.787-2.974 0-1.818 1.122-2.974 2.787-2.974 1.071 0 1.903.51 2.6 1.393l2.532-2.26c-1.173-1.53-3.008-2.38-5.336-2.38-3.824 0-6.629 2.567-6.629 6.221 0 3.655 2.805 6.22 6.629 6.22z" fill="#000"/></svg>